<svg width="22" height="21" viewBox="0 0 22 21" fill="none" xmlns="http://www.w3.org/2000/svg">
<path d="M18.8571 1.57143H15.3214V0.785714C15.3214 0.57733 15.2386 0.377481 15.0913 0.230131C14.9439 0.0827805 14.7441 0 14.5357 0C14.3273 0 14.1275 0.0827805 13.9801 0.230131C13.8328 0.377481 13.75 0.57733 13.75 0.785714V1.57143H8.25V0.785714C8.25 0.57733 8.16722 0.377481 8.01987 0.230131C7.87252 0.0827805 7.67267 0 7.46429 0C7.2559 0 7.05605 0.0827805 6.9087 0.230131C6.76135 0.377481 6.67857 0.57733 6.67857 0.785714V1.57143H3.14286C2.30961 1.57238 1.51077 1.90381 0.921578 2.49301C0.332385 3.0822 0.000956581 3.88104 0 4.71429V17.2857C0.000956581 18.119 0.332385 18.9178 0.921578 19.507C1.51077 20.0962 2.30961 20.4276 3.14286 20.4286H18.8571C19.6904 20.4276 20.4892 20.0962 21.0784 19.507C21.6676 18.9178 21.999 18.119 22 17.2857V4.71429C21.999 3.88104 21.6676 3.0822 21.0784 2.49301C20.4892 1.90381 19.6904 1.57238 18.8571 1.57143ZM3.14286 3.14286H6.67857V3.92857C6.67857 4.13696 6.76135 4.3368 6.9087 4.48415C7.05605 4.6315 7.2559 4.71429 7.46429 4.71429C7.67267 4.71429 7.87252 4.6315 8.01987 4.48415C8.16722 4.3368 8.25 4.13696 8.25 3.92857V3.14286H13.75V3.92857C13.75 4.13696 13.8328 4.3368 13.9801 4.48415C14.1275 4.6315 14.3273 4.71429 14.5357 4.71429C14.7441 4.71429 14.9439 4.6315 15.0913 4.48415C15.2386 4.3368 15.3214 4.13696 15.3214 3.92857V3.14286H18.8571C19.2738 3.14332 19.6732 3.30904 19.9678 3.60363C20.2624 3.89823 20.4281 4.29766 20.4286 4.71429V6.28571H1.57143V4.71429C1.5719 4.29766 1.73761 3.89823 2.03221 3.60363C2.3268 3.30904 2.72623 3.14332 3.14286 3.14286ZM18.8571 18.8571H3.14286C2.72623 18.8567 2.3268 18.691 2.03221 18.3964C1.73761 18.1018 1.5719 17.7023 1.57143 17.2857V7.85714H20.4286V17.2857C20.4281 17.7023 20.2624 18.1018 19.9678 18.3964C19.6732 18.691 19.2738 18.8567 18.8571 18.8571Z" fill="#A3A5A6"/>
<path d="M5.50002 9.42858H4.7143C4.50592 9.42858 4.30607 9.51136 4.15872 9.65871C4.01137 9.80606 3.92859 10.0059 3.92859 10.2143C3.92859 10.4227 4.01137 10.6225 4.15872 10.7699C4.30607 10.9172 4.50592 11 4.7143 11H5.50002C5.7084 11 5.90825 10.9172 6.0556 10.7699C6.20295 10.6225 6.28573 10.4227 6.28573 10.2143C6.28573 10.0059 6.20295 9.80606 6.0556 9.65871C5.90825 9.51136 5.7084 9.42858 5.50002 9.42858Z" fill="#A3A5A6"/>
<path d="M9.42861 9.42858H8.64289C8.43451 9.42858 8.23466 9.51136 8.08731 9.65871C7.93996 9.80606 7.85718 10.0059 7.85718 10.2143C7.85718 10.4227 7.93996 10.6225 8.08731 10.7699C8.23466 10.9172 8.43451 11 8.64289 11H9.42861C9.63699 11 9.83684 10.9172 9.98419 10.7699C10.1315 10.6225 10.2143 10.4227 10.2143 10.2143C10.2143 10.0059 10.1315 9.80606 9.98419 9.65871C9.83684 9.51136 9.63699 9.42858 9.42861 9.42858Z" fill="#A3A5A6"/>
<path d="M17.2857 9.42858H16.4999C16.2916 9.42858 16.0917 9.51136 15.9444 9.65871C15.797 9.80606 15.7142 10.0059 15.7142 10.2143C15.7142 10.4227 15.797 10.6225 15.9444 10.7699C16.0917 10.9172 16.2916 11 16.4999 11H17.2857C17.494 11 17.6939 10.9172 17.8412 10.7699C17.9886 10.6225 18.0714 10.4227 18.0714 10.2143C18.0714 10.0059 17.9886 9.80606 17.8412 9.65871C17.6939 9.51136 17.494 9.42858 17.2857 9.42858Z" fill="#A3A5A6"/>
<path d="M13.3572 9.42858H12.5715C12.3631 9.42858 12.1632 9.51136 12.0159 9.65871C11.8685 9.80606 11.7858 10.0059 11.7858 10.2143C11.7858 10.4227 11.8685 10.6225 12.0159 10.7699C12.1632 10.9172 12.3631 11 12.5715 11H13.3572C13.5656 11 13.7654 10.9172 13.9128 10.7699C14.0601 10.6225 14.1429 10.4227 14.1429 10.2143C14.1429 10.0059 14.0601 9.80606 13.9128 9.65871C13.7654 9.51136 13.5656 9.42858 13.3572 9.42858Z" fill="#A3A5A6"/>
<path d="M5.50002 15.7143H4.7143C4.50592 15.7143 4.30607 15.7971 4.15872 15.9444C4.01137 16.0918 3.92859 16.2916 3.92859 16.5C3.92859 16.7084 4.01137 16.9082 4.15872 17.0556C4.30607 17.2029 4.50592 17.2857 4.7143 17.2857H5.50002C5.7084 17.2857 5.90825 17.2029 6.0556 17.0556C6.20295 16.9082 6.28573 16.7084 6.28573 16.5C6.28573 16.2916 6.20295 16.0918 6.0556 15.9444C5.90825 15.7971 5.7084 15.7143 5.50002 15.7143Z" fill="#A3A5A6"/>
<path d="M9.42861 15.7143H8.64289C8.43451 15.7143 8.23466 15.7971 8.08731 15.9444C7.93996 16.0918 7.85718 16.2916 7.85718 16.5C7.85718 16.7084 7.93996 16.9082 8.08731 17.0556C8.23466 17.2029 8.43451 17.2857 8.64289 17.2857H9.42861C9.63699 17.2857 9.83684 17.2029 9.98419 17.0556C10.1315 16.9082 10.2143 16.7084 10.2143 16.5C10.2143 16.2916 10.1315 16.0918 9.98419 15.9444C9.83684 15.7971 9.63699 15.7143 9.42861 15.7143Z" fill="#A3A5A6"/>
<path d="M17.2857 15.7143H16.4999C16.2916 15.7143 16.0917 15.7971 15.9444 15.9444C15.797 16.0918 15.7142 16.2916 15.7142 16.5C15.7142 16.7084 15.797 16.9082 15.9444 17.0556C16.0917 17.2029 16.2916 17.2857 16.4999 17.2857H17.2857C17.494 17.2857 17.6939 17.2029 17.8412 17.0556C17.9886 16.9082 18.0714 16.7084 18.0714 16.5C18.0714 16.2916 17.9886 16.0918 17.8412 15.9444C17.6939 15.7971 17.494 15.7143 17.2857 15.7143Z" fill="#A3A5A6"/>
<path d="M13.3572 15.7143H12.5715C12.3631 15.7143 12.1632 15.7971 12.0159 15.9444C11.8685 16.0918 11.7858 16.2916 11.7858 16.5C11.7858 16.7084 11.8685 16.9082 12.0159 17.0556C12.1632 17.2029 12.3631 17.2857 12.5715 17.2857H13.3572C13.5656 17.2857 13.7654 17.2029 13.9128 17.0556C14.0601 16.9082 14.1429 16.7084 14.1429 16.5C14.1429 16.2916 14.0601 16.0918 13.9128 15.9444C13.7654 15.7971 13.5656 15.7143 13.3572 15.7143Z" fill="#A3A5A6"/>
<path d="M5.50002 12.5714H4.7143C4.50592 12.5714 4.30607 12.6542 4.15872 12.8016C4.01137 12.9489 3.92859 13.1488 3.92859 13.3571C3.92859 13.5655 4.01137 13.7654 4.15872 13.9127C4.30607 14.0601 4.50592 14.1429 4.7143 14.1429H5.50002C5.7084 14.1429 5.90825 14.0601 6.0556 13.9127C6.20295 13.7654 6.28573 13.5655 6.28573 13.3571C6.28573 13.1488 6.20295 12.9489 6.0556 12.8016C5.90825 12.6542 5.7084 12.5714 5.50002 12.5714Z" fill="#A3A5A6"/>
<path d="M9.42861 12.5714H8.64289C8.43451 12.5714 8.23466 12.6542 8.08731 12.8016C7.93996 12.9489 7.85718 13.1488 7.85718 13.3571C7.85718 13.5655 7.93996 13.7654 8.08731 13.9127C8.23466 14.0601 8.43451 14.1429 8.64289 14.1429H9.42861C9.63699 14.1429 9.83684 14.0601 9.98419 13.9127C10.1315 13.7654 10.2143 13.5655 10.2143 13.3571C10.2143 13.1488 10.1315 12.9489 9.98419 12.8016C9.83684 12.6542 9.63699 12.5714 9.42861 12.5714Z" fill="#A3A5A6"/>
<path d="M17.2857 12.5714H16.4999C16.2916 12.5714 16.0917 12.6542 15.9444 12.8016C15.797 12.9489 15.7142 13.1488 15.7142 13.3571C15.7142 13.5655 15.797 13.7654 15.9444 13.9127C16.0917 14.0601 16.2916 14.1429 16.4999 14.1429H17.2857C17.494 14.1429 17.6939 14.0601 17.8412 13.9127C17.9886 13.7654 18.0714 13.5655 18.0714 13.3571C18.0714 13.1488 17.9886 12.9489 17.8412 12.8016C17.6939 12.6542 17.494 12.5714 17.2857 12.5714Z" fill="#A3A5A6"/>
<path d="M13.3572 12.5714H12.5715C12.3631 12.5714 12.1632 12.6542 12.0159 12.8016C11.8685 12.9489 11.7858 13.1488 11.7858 13.3571C11.7858 13.5655 11.8685 13.7654 12.0159 13.9127C12.1632 14.0601 12.3631 14.1429 12.5715 14.1429H13.3572C13.5656 14.1429 13.7654 14.0601 13.9128 13.9127C14.0601 13.7654 14.1429 13.5655 14.1429 13.3571C14.1429 13.1488 14.0601 12.9489 13.9128 12.8016C13.7654 12.6542 13.5656 12.5714 13.3572 12.5714Z" fill="#A3A5A6"/>
</svg>
