<svg width="55" height="15" viewBox="0 0 55 15" fill="none" xmlns="http://www.w3.org/2000/svg">
<path d="M37.1656 0H32.9253C32.6758 0 32.4264 0.249432 32.3017 0.498865L30.5557 11.4739C30.5557 11.7233 30.6804 11.8481 30.9298 11.8481H33.1747C33.4241 11.8481 33.5489 11.7233 33.5489 11.4739L34.0477 8.356C34.0477 8.10657 34.2972 7.85714 34.6713 7.85714H36.0432C38.9117 7.85714 40.533 6.48525 40.9071 3.74149C41.1566 2.61905 40.9071 1.62132 40.4083 0.997733C39.66 0.374151 38.5375 0 37.1656 0ZM37.6645 4.11564C37.4151 5.61224 36.2926 5.61224 35.1702 5.61224H34.4219L34.9207 2.74376C34.9207 2.61905 35.0455 2.49433 35.2949 2.49433H35.5443C36.2926 2.49433 37.0409 2.49433 37.4151 2.99319C37.6645 3.11791 37.6645 3.49206 37.6645 4.11564Z" fill="#139AD6"/>
<path d="M6.60997 0H2.36961C2.12018 0 1.87074 0.249432 1.74603 0.498865L0 11.4739C0 11.7233 0.124718 11.8481 0.37415 11.8481H2.36961C2.61904 11.8481 2.86848 11.5986 2.99319 11.3492L3.49206 8.356C3.49206 8.10657 3.74149 7.85714 4.11564 7.85714H5.48752C8.35599 7.85714 9.97731 6.48525 10.3515 3.74149C10.6009 2.61905 10.3515 1.62132 9.85259 0.997733C9.10429 0.374151 8.10656 0 6.60997 0ZM7.10883 4.11564C6.8594 5.61224 5.73695 5.61224 4.61451 5.61224H3.99092L4.48979 2.74376C4.48979 2.61905 4.6145 2.49433 4.86394 2.49433H5.11337C5.86167 2.49433 6.60997 2.49433 6.98412 2.99319C7.10883 3.11791 7.23355 3.49206 7.10883 4.11564Z" fill="#263B80"/>
<path d="M19.4547 3.99092H17.4593C17.3346 3.99092 17.0851 4.11563 17.0851 4.24035L16.9604 4.86393L16.8357 4.6145C16.3368 3.99092 15.4638 3.74148 14.4661 3.74148C12.2212 3.74148 10.2257 5.48751 9.85157 7.85713C9.60213 9.10429 9.97628 10.2267 10.5999 10.975C11.2234 11.7233 12.0965 11.9728 13.2189 11.9728C15.0897 11.9728 16.0874 10.8503 16.0874 10.8503L15.9627 11.4739C15.9627 11.7233 16.0874 11.8481 16.3368 11.8481H18.2076C18.457 11.8481 18.7064 11.5986 18.8312 11.3492L19.9536 4.36507C19.8289 4.24035 19.5795 3.99092 19.4547 3.99092ZM16.5863 7.98184C16.3368 9.10429 15.4638 9.97731 14.2166 9.97731C13.5931 9.97731 13.0942 9.72787 12.8448 9.47844C12.5953 9.10429 12.4706 8.60542 12.4706 7.98184C12.5953 6.85939 13.5931 5.98638 14.7155 5.98638C15.3391 5.98638 15.7132 6.23581 16.0874 6.48524C16.4615 6.85939 16.5863 7.48298 16.5863 7.98184Z" fill="#263B80"/>
<path d="M49.8869 3.99098H47.8914C47.7667 3.99098 47.5173 4.1157 47.5173 4.24041L47.3925 4.864L47.2678 4.61456C46.769 3.99098 45.8959 3.74155 44.8982 3.74155C42.6533 3.74155 40.6578 5.48758 40.2837 7.85719C40.0343 9.10436 40.4084 10.2268 41.032 10.9751C41.6556 11.7234 42.5286 11.9728 43.651 11.9728C45.5218 11.9728 46.5195 10.8504 46.5195 10.8504L46.3948 11.474C46.3948 11.7234 46.5195 11.8481 46.769 11.8481H48.6397C48.8891 11.8481 49.1386 11.5987 49.2633 11.3492L50.3857 4.36513C50.261 4.24041 50.1363 3.99098 49.8869 3.99098ZM47.0184 7.98191C46.769 9.10435 45.8959 9.97737 44.6488 9.97737C44.0252 9.97737 43.5263 9.72794 43.2769 9.4785C43.0275 9.10435 42.9027 8.60549 42.9027 7.98191C43.0275 6.85946 44.0252 5.98645 45.1476 5.98645C45.7712 5.98645 46.1454 6.23588 46.5195 6.48531C47.0184 6.85946 47.1431 7.48304 47.0184 7.98191Z" fill="#139AD6"/>
<path d="M30.3053 3.99092H28.1851C27.9357 3.99092 27.811 4.11564 27.6863 4.24035L24.9425 8.48071L23.6953 4.48979C23.5706 4.24035 23.4459 4.11564 23.0718 4.11564H21.0763C20.8269 4.11564 20.7021 4.36507 20.7021 4.6145L22.947 11.2245L20.8269 14.2177C20.7021 14.4671 20.8269 14.8412 21.0763 14.8412H23.0718C23.3212 14.8412 23.4459 14.7165 23.5706 14.5918L30.43 4.73922C30.8042 4.36507 30.5548 3.99092 30.3053 3.99092Z" fill="#263B80"/>
<path d="M52.2563 0.374132L50.5103 11.5986C50.5103 11.848 50.635 11.9728 50.8844 11.9728H52.6304C52.8799 11.9728 53.1293 11.7233 53.254 11.4739L55.0001 0.498846C55.0001 0.249413 54.8753 0.124698 54.6259 0.124698H52.6304C52.5057 -1.83955e-05 52.381 0.124699 52.2563 0.374132Z" fill="#139AD6"/>
</svg>
