<svg width="55" height="20" viewBox="0 0 55 20" fill="none" xmlns="http://www.w3.org/2000/svg">
<path d="M10.6503 19.9003V11.2867H19.7704L20.7489 12.5624L21.7598 11.2867H54.8638V19.3064C54.8638 19.3064 53.9981 19.8918 52.9968 19.9004H34.6665L33.5633 18.5425V19.9004H29.9481V17.5826C29.9481 17.5826 29.4542 17.9061 28.3866 17.9061H27.1561V19.9004H21.6825L20.7053 18.5974L19.7132 19.9004L10.6503 19.9003ZM0 4.79477L2.05663 0H5.61339L6.7805 2.68583V0H11.2019L11.8967 1.94124L12.5703 0H32.4176V0.975926C32.4176 0.975926 33.461 0 35.1756 0L41.6154 0.0225503L42.7623 2.67318V0H46.4624L47.4807 1.52257V0H51.2147V8.61361H47.4807L46.5048 7.08603V8.61355H41.0687L40.522 7.25576H39.0606L38.5227 8.61355H34.8362C33.3607 8.61355 32.4176 7.65759 32.4176 7.65759V8.61355H26.859L25.7558 7.25581V8.61361H5.08649L4.54017 7.25581H3.08332L2.54102 8.61355H0V4.79477Z" fill="white"/>
<path d="M2.7842 1.06188L0.0102539 7.51144H1.81625L2.32808 6.21992H5.3036L5.81274 7.51144H7.65855L4.88714 1.06188H2.7842ZM3.8105 2.56284L4.71746 4.81972H2.90091L3.8105 2.56284ZM7.84946 7.51034V1.06078L10.4158 1.07029L11.9085 5.2286L13.3655 1.06078H15.9114V7.51034H14.299V2.75804L12.5898 7.51034H11.1758L9.46185 2.75804V7.51034H7.84946ZM17.0146 7.51034V1.06078H22.2761V2.50344H18.644V3.60664H22.1912V4.96449H18.644V6.11014H22.2761V7.51034H17.0146ZM23.2096 1.06188V7.51144H24.822V5.22013H25.5009L27.4341 7.51144H29.4046L27.283 5.13526C28.1537 5.06178 29.0519 4.31449 29.0519 3.15426C29.0519 1.79707 27.9866 1.06188 26.7977 1.06188H23.2096ZM24.822 2.50454H26.6651C27.1073 2.50454 27.4289 2.85038 27.4289 3.18341C27.4289 3.61186 27.0121 3.86233 26.689 3.86233H24.822V2.50454ZM31.3564 7.51034H29.7101V1.06078H31.3564V7.51034ZM35.2601 7.51034H34.9048C33.1854 7.51034 32.1414 6.15568 32.1414 4.31207C32.1414 2.42286 33.1737 1.06078 35.345 1.06078H37.1271V2.58831H35.2798C34.3984 2.58831 33.775 3.2762 33.775 4.32797C33.775 5.57702 34.4878 6.10162 35.5147 6.10162H35.939L35.2601 7.51034ZM38.7687 1.06188L35.9947 7.51144H37.8007L38.3125 6.21992H41.288L41.7972 7.51144H43.643L40.8717 1.06188H38.7687ZM39.795 2.56284L40.7019 4.81972H38.8853L39.795 2.56284ZM43.8312 7.51034V1.06078H45.8812L48.4987 5.11299V1.06078H50.1111V7.51034H48.1274L45.4436 3.35209V7.51034H43.8312ZM11.7532 18.7971V12.3475H17.0146V13.7902H13.3825V14.8934H16.9297V16.2512H13.3825V17.3969H17.0146V18.7971H11.7532ZM37.5345 18.7971V12.3475H42.7959V13.7902H39.1638V14.8934H42.6941V16.2512H39.1637V17.3969H42.7959V18.7971H37.5345ZM17.2188 18.7971L19.7806 15.6121L17.1578 12.3475H19.1893L20.7513 14.3656L22.3186 12.3475H24.2705L21.6822 15.5723L24.2486 18.7971H22.2176L20.7009 16.8108L19.2211 18.7971H17.2188ZM24.4401 12.3486V18.7982H26.0949V16.7615H27.7922C29.2283 16.7615 30.3169 15.9996 30.3169 14.5179C30.3169 13.2905 29.4631 12.3486 28.0017 12.3486H24.4401ZM26.0949 13.8072H27.8823C28.3463 13.8072 28.6779 14.0916 28.6779 14.5497C28.6779 14.9802 28.348 15.2923 27.8771 15.2923H26.0949V13.8072ZM31.017 12.3475V18.7971H32.6294V16.5058H33.3083L35.2416 18.7971H37.2119L35.0904 16.421C35.9611 16.3475 36.8592 15.6001 36.8592 14.4399C36.8592 13.0827 35.794 12.3475 34.6051 12.3475H31.017ZM32.6294 13.7902H34.4725C34.9146 13.7902 35.2363 14.136 35.2363 14.4691C35.2363 14.8975 34.8195 15.148 34.4964 15.148H32.6294V13.7902ZM43.5427 18.7971V17.3969H46.7696C47.2471 17.3969 47.4538 17.1388 47.4538 16.8558C47.4538 16.5847 47.2478 16.3106 46.7696 16.3106H45.3114C44.0439 16.3106 43.338 15.5384 43.338 14.379C43.338 13.3448 43.9844 12.3475 45.868 12.3475H49.0079L48.329 13.7987H45.6134C45.0943 13.7987 44.9345 14.0711 44.9345 14.3312C44.9345 14.5985 45.1319 14.8934 45.5285 14.8934H47.056C48.469 14.8934 49.0821 15.6949 49.0821 16.7445C49.0821 17.8729 48.3989 18.7971 46.9791 18.7971H43.5427ZM49.4606 18.7971V17.3969H52.6875C53.165 17.3969 53.3717 17.1388 53.3717 16.8558C53.3717 16.5847 53.1656 16.3106 52.6875 16.3106H51.2293C49.9618 16.3106 49.2559 15.5384 49.2559 14.379C49.2559 13.3448 49.9023 12.3475 51.7858 12.3475H54.9258L54.2468 13.7987H51.5312C51.0121 13.7987 50.8523 14.0711 50.8523 14.3312C50.8523 14.5985 51.0498 14.8934 51.4464 14.8934H52.9739C54.3869 14.8934 55 15.6949 55 16.7445C55 17.8729 54.3168 18.7971 52.897 18.7971H49.4606Z" fill="#016FD0"/>
</svg>
