<svg width="50" height="17" viewBox="0 0 50 17" fill="none" xmlns="http://www.w3.org/2000/svg">
<path d="M25.8588 6.06642C25.8303 8.30524 27.8633 9.55451 29.3947 10.2973C30.9682 11.0594 31.4967 11.5482 31.4904 12.2298C31.4787 13.2728 30.2354 13.7331 29.0719 13.751C27.042 13.7823 25.8617 13.2055 24.9234 12.7693L24.1922 16.1751C25.1336 16.6069 26.8768 16.9835 28.6844 17C32.9275 17 35.7035 14.9152 35.7186 11.6827C35.7352 7.58029 30.0178 7.35322 30.0568 5.51955C30.0703 4.96354 30.6033 4.3702 31.7713 4.21934C32.3494 4.14313 33.9453 4.08481 35.7547 4.91416L36.4648 1.61892C35.4918 1.26626 34.2412 0.928571 32.6842 0.928571C28.6904 0.928571 25.8814 3.0418 25.8588 6.06642V6.06642ZM43.2887 1.21241C42.5139 1.21241 41.8609 1.66227 41.5695 2.35262L35.5084 16.758H39.7484L40.5922 14.4369H45.7734L46.2629 16.758H50L46.7389 1.21241H43.2887V1.21241ZM43.8818 5.41184L45.1055 11.2494H41.7543L43.8818 5.41184V5.41184ZM20.718 1.2126L17.3758 16.7578H21.4162L24.7568 1.21221H20.718V1.2126ZM14.7408 1.21221L10.5354 11.7933L8.83418 2.79665C8.63457 1.79233 7.84629 1.21241 6.9709 1.21241H0.0962891L0 1.66383C1.41133 1.96866 3.01484 2.46032 3.98633 2.98639C4.58086 3.30775 4.75039 3.58867 4.9457 4.35231L8.16777 16.758H12.4375L18.9836 1.21241H14.7408" fill="url(#paint0_linear_69:627)"/>
<defs>
<linearGradient id="paint0_linear_69:627" x1="22.987" y1="17.3224" x2="23.4501" y2="0.81668" gradientUnits="userSpaceOnUse">
<stop stop-color="#222357"/>
<stop offset="1" stop-color="#254AA5"/>
</linearGradient>
</defs>
</svg>
