<svg width="50" height="39" viewBox="0 0 50 39" fill="none" xmlns="http://www.w3.org/2000/svg">
<path d="M9.09976 38.7118V36.1368C9.09976 35.1495 8.49879 34.5059 7.46868 34.5059C6.95372 34.5059 6.39576 34.6776 6.00944 35.2355C5.70915 34.7634 5.28002 34.5059 4.63623 34.5059C4.20691 34.5059 3.77797 34.6345 3.43447 35.1067V34.5917H2.5332V38.7118H3.43447V36.4371C3.43447 35.7077 3.82079 35.3642 4.42176 35.3642C5.02235 35.3642 5.32303 35.7505 5.32303 36.4371V38.7118H6.2243V36.4371C6.2243 35.7077 6.65324 35.3642 7.2112 35.3642C7.81218 35.3642 8.11247 35.7505 8.11247 36.4371V38.7118H9.09976ZM22.447 34.5917H20.9879V33.3472H20.0866V34.5917H19.2712V35.407H20.0865V37.2955C20.0865 38.2398 20.4728 38.7976 21.5029 38.7976C21.8892 38.7976 22.3181 38.669 22.6188 38.4973L22.3611 37.7247C22.1037 37.8963 21.8034 37.9393 21.5887 37.9393C21.1596 37.9393 20.9879 37.6819 20.9879 37.2525V35.407H22.447V34.5917ZM30.0864 34.5057C29.5715 34.5057 29.2282 34.7634 29.0135 35.1067V34.5917H28.1122V38.7118H29.0135V36.3943C29.0135 35.7077 29.3138 35.3214 29.8718 35.3214C30.0434 35.3214 30.2581 35.3644 30.4297 35.4072L30.6872 34.5489C30.5156 34.5059 30.2581 34.5059 30.0864 34.5059V34.5057ZM18.5416 34.935C18.1123 34.6345 17.5115 34.5059 16.8677 34.5059C15.8378 34.5059 15.1512 35.0209 15.1512 35.8363C15.1512 36.5231 15.6661 36.9092 16.5674 37.0381L16.9965 37.0811C17.4687 37.1667 17.7261 37.2955 17.7261 37.5102C17.7261 37.8105 17.3828 38.0252 16.7819 38.0252C16.1811 38.0252 15.7089 37.8105 15.4085 37.596L14.9793 38.2826C15.4515 38.6259 16.0953 38.7976 16.7389 38.7976C17.9406 38.7976 18.6274 38.2398 18.6274 37.4672C18.6274 36.7376 18.0694 36.3513 17.211 36.2226L16.7819 36.1796C16.3955 36.1366 16.0953 36.051 16.0953 35.7935C16.0953 35.493 16.3955 35.3214 16.8677 35.3214C17.3828 35.3214 17.8978 35.5358 18.1553 35.6647L18.5416 34.935ZM42.4897 34.5059C41.9746 34.5059 41.6313 34.7634 41.4166 35.1067V34.5917H40.5154V38.7118H41.4166V36.3943C41.4166 35.7077 41.7171 35.3214 42.2749 35.3214C42.4467 35.3214 42.6614 35.3644 42.833 35.4072L43.0905 34.5489C42.9189 34.5059 42.6614 34.5059 42.4897 34.5059ZM30.9877 36.6518C30.9877 37.8963 31.846 38.7976 33.1766 38.7976C33.7773 38.7976 34.2065 38.669 34.6356 38.3257L34.2065 37.596C33.8632 37.8535 33.5199 37.9822 33.1336 37.9822C32.4039 37.9822 31.889 37.4672 31.889 36.6518C31.889 35.8793 32.4039 35.3642 33.1336 35.3214C33.5199 35.3214 33.8632 35.45 34.2065 35.7077L34.6356 34.978C34.2065 34.6345 33.7773 34.5059 33.1766 34.5059C31.846 34.5059 30.9877 35.4072 30.9877 36.6518ZM39.3138 36.6518V34.5917H38.4125V35.1067C38.112 34.7206 37.6829 34.5059 37.1249 34.5059C35.9662 34.5059 35.0649 35.4072 35.0649 36.6518C35.0649 37.8963 35.9662 38.7976 37.1249 38.7976C37.7257 38.7976 38.1551 38.5831 38.4125 38.1968V38.7118H39.3138V36.6518ZM36.009 36.6518C36.009 35.9221 36.4812 35.3214 37.2536 35.3214C37.9832 35.3214 38.4984 35.8793 38.4984 36.6518C38.4984 37.3814 37.9832 37.9822 37.2536 37.9822C36.4812 37.9391 36.009 37.3814 36.009 36.6518ZM25.2368 34.5059C24.035 34.5059 23.1766 35.3642 23.1766 36.6518C23.1766 37.9393 24.0348 38.7976 25.2796 38.7976C25.8804 38.7976 26.4814 38.6259 26.9535 38.2398L26.5242 37.596C26.1809 37.8535 25.7517 38.0252 25.3226 38.0252C24.7647 38.0252 24.2067 37.7677 24.0778 37.0379H27.1252V36.6948C27.1682 35.3642 26.3955 34.5059 25.2366 34.5059H25.2368ZM25.2368 35.2783C25.7946 35.2783 26.1811 35.6218 26.2667 36.2656H24.1209C24.2067 35.7077 24.593 35.2783 25.2368 35.2783ZM47.5969 36.6518V32.9608H46.6956V35.1067C46.3951 34.7206 45.966 34.5059 45.408 34.5059C44.2493 34.5059 43.348 35.4072 43.348 36.6518C43.348 37.8963 44.2493 38.7976 45.408 38.7976C46.009 38.7976 46.4381 38.5831 46.6956 38.1968V38.7118H47.5969V36.6518ZM44.2923 36.6518C44.2923 35.9221 44.7642 35.3214 45.5369 35.3214C46.2665 35.3214 46.7814 35.8793 46.7814 36.6518C46.7814 37.3814 46.2665 37.9822 45.5369 37.9822C44.7642 37.9391 44.2923 37.3814 44.2923 36.6518ZM14.1639 36.6518V34.5917H13.2626V35.1067C12.9621 34.7206 12.533 34.5059 11.975 34.5059C10.8163 34.5059 9.91501 35.4072 9.91501 36.6518C9.91501 37.8963 10.8163 38.7976 11.975 38.7976C12.576 38.7976 13.0051 38.5831 13.2626 38.1968V38.7118H14.1639V36.6518ZM10.8163 36.6518C10.8163 35.9221 11.2884 35.3214 12.0609 35.3214C12.7905 35.3214 13.3056 35.8793 13.3056 36.6518C13.3056 37.3814 12.7905 37.9822 12.0609 37.9822C11.2884 37.9391 10.8163 37.3814 10.8163 36.6518Z" fill="black"/>
<path d="M18.2417 3.3046H31.7607V27.5961H18.2417V3.3046Z" fill="#FF5F00"/>
<path d="M19.0985 15.4504C19.0985 10.5149 21.416 6.13723 24.9781 3.30459C22.3603 1.24457 19.0557 0 15.4506 0C6.90967 0 0 6.90967 0 15.4504C0 23.991 6.90967 30.9008 15.4504 30.9008C19.0555 30.9008 22.3601 29.6563 24.9781 27.5961C21.416 24.8064 19.0985 20.3859 19.0985 15.4504Z" fill="#EB001B"/>
<path d="M50 15.4504C50 23.991 43.0904 30.9008 34.5496 30.9008C30.9445 30.9008 27.64 29.6563 25.022 27.596C28.627 24.7636 30.9017 20.3859 30.9017 15.4504C30.9017 10.5149 28.584 6.13723 25.022 3.30459C27.6398 1.24457 30.9445 0 34.5496 0C43.0904 0 50.0002 6.95268 50.0002 15.4504H50Z" fill="#F79E1B"/>
</svg>
