<svg width="18" height="11" viewBox="0 0 18 11" fill="none" xmlns="http://www.w3.org/2000/svg">
<path d="M8.75 2.1875C7.30023 2.1875 6.125 3.55852 6.125 5.25C6.125 6.94121 7.30023 8.3125 8.75 8.3125C10.1992 8.3125 11.375 6.94176 11.375 5.25C11.375 3.55852 10.1998 2.1875 8.75 2.1875ZM9.84375 6.78125C9.84375 6.90211 9.74586 7 9.625 7H7.875C7.75414 7 7.65625 6.90211 7.65625 6.78125V6.34375C7.65625 6.22289 7.75414 6.125 7.875 6.125H8.3125V4.60906L8.29965 4.61754C8.27576 4.63348 8.24896 4.64456 8.22078 4.65014C8.19261 4.65572 8.16361 4.65569 8.13544 4.65005C8.10728 4.64441 8.0805 4.63328 8.05665 4.61728C8.03279 4.60129 8.01232 4.58075 7.99641 4.55684L7.75359 4.19289C7.73765 4.169 7.72657 4.1422 7.72099 4.11402C7.71541 4.08585 7.71544 4.05685 7.72108 4.02869C7.72672 4.00052 7.73785 3.97375 7.75385 3.94989C7.76984 3.92603 7.79038 3.90556 7.8143 3.88965L8.23348 3.6102C8.34125 3.53834 8.46789 3.49999 8.59742 3.5H8.96875C9.08961 3.5 9.1875 3.59789 9.1875 3.71875V6.125H9.625C9.74586 6.125 9.84375 6.22289 9.84375 6.34375V6.78125ZM16.625 0H0.875C0.391836 0 0 0.391836 0 0.875V9.625C0 10.1082 0.391836 10.5 0.875 10.5H16.625C17.1082 10.5 17.5 10.1082 17.5 9.625V0.875C17.5 0.391836 17.1082 0 16.625 0ZM16.1875 7.4375C15.2209 7.4375 14.4375 8.2209 14.4375 9.1875H3.0625C3.0625 8.2209 2.2791 7.4375 1.3125 7.4375V3.0625C2.2791 3.0625 3.0625 2.2791 3.0625 1.3125H14.4375C14.4375 2.2791 15.2209 3.0625 16.1875 3.0625V7.4375Z" fill="#5C6366"/>
</svg>
