<svg width="35" height="15" viewBox="0 0 35 15" fill="none" xmlns="http://www.w3.org/2000/svg">
<path d="M7.13746 13.6558C8.21975 12.5735 9.45171 11.6801 10.7915 11.0059C11.4533 10.6807 11.9055 9.91971 11.8973 9.30924L12.3845 5.82108C15.9202 4.74643 18.7595 4.74597 22.261 5.82012L22.7406 9.21235C22.7401 9.96857 23.1563 10.6563 23.8368 11.0116C25.1834 11.6897 26.4153 12.5821 27.4981 13.6648C28.2802 14.4471 29.5529 14.4471 30.3351 13.6649L33.5815 10.4185C34.3637 9.63635 34.3636 8.36365 33.5815 7.58151C24.6161 -1.38393 10.0286 -1.3839 1.06315 7.58151C0.281012 8.36365 0.281013 9.63635 1.06316 10.4185L4.30052 13.6559C5.08266 14.4379 6.35536 14.4379 7.13746 13.6558Z" fill="white"/>
</svg>
