<svg width="20" height="20" viewBox="0 0 20 20" fill="none" xmlns="http://www.w3.org/2000/svg">
<path fill-rule="evenodd" clip-rule="evenodd" d="M14.4447 2.22222C13.831 2.22222 13.3336 2.71969 13.3336 3.33333C13.3336 3.94698 13.831 4.44444 14.4447 4.44444C15.0583 4.44444 15.5558 3.94698 15.5558 3.33333C15.5558 2.71969 15.0583 2.22222 14.4447 2.22222ZM11.1113 3.33333C11.1113 1.49239 12.6037 0 14.4447 0C16.2857 0 17.778 1.49239 17.778 3.33333C17.778 5.17428 16.2857 6.66667 14.4447 6.66667C12.6037 6.66667 11.1113 5.17428 11.1113 3.33333Z" fill="#5C6366"/>
<path fill-rule="evenodd" clip-rule="evenodd" d="M5.5555 8.88889C4.94186 8.88889 4.44439 9.38634 4.44439 10C4.44439 10.6137 4.94186 11.1111 5.5555 11.1111C6.16915 11.1111 6.66661 10.6137 6.66661 10C6.66661 9.38634 6.16915 8.88889 5.5555 8.88889ZM2.22217 10C2.22217 8.15901 3.71456 6.66667 5.5555 6.66667C7.39645 6.66667 8.88883 8.15901 8.88883 10C8.88883 11.841 7.39645 13.3333 5.5555 13.3333C3.71456 13.3333 2.22217 11.841 2.22217 10Z" fill="#5C6366"/>
<path fill-rule="evenodd" clip-rule="evenodd" d="M14.4447 15.5556C13.831 15.5556 13.3336 16.053 13.3336 16.6667C13.3336 17.2803 13.831 17.7778 14.4447 17.7778C15.0583 17.7778 15.5558 17.2803 15.5558 16.6667C15.5558 16.053 15.0583 15.5556 14.4447 15.5556ZM11.1113 16.6667C11.1113 14.8257 12.6037 13.3333 14.4447 13.3333C16.2857 13.3333 17.778 14.8257 17.778 16.6667C17.778 18.5077 16.2857 20 14.4447 20C12.6037 20 11.1113 18.5077 11.1113 16.6667Z" fill="#5C6366"/>
<path fill-rule="evenodd" clip-rule="evenodd" d="M0 3.33334C0 2.7197 0.497467 2.22223 1.11111 2.22223H12.2222C12.8359 2.22223 13.3333 2.7197 13.3333 3.33334C13.3333 3.94698 12.8359 4.44445 12.2222 4.44445H1.11111C0.497467 4.44445 0 3.94698 0 3.33334Z" fill="#5C6366"/>
<path fill-rule="evenodd" clip-rule="evenodd" d="M6.6665 10C6.6665 9.38633 7.16397 8.88889 7.77762 8.88889H18.8887C19.5024 8.88889 19.9998 9.38633 19.9998 10C19.9998 10.6137 19.5024 11.1111 18.8887 11.1111H7.77762C7.16397 11.1111 6.6665 10.6137 6.6665 10Z" fill="#5C6366"/>
<path fill-rule="evenodd" clip-rule="evenodd" d="M0 10C0 9.38633 0.497467 8.88889 1.11111 8.88889H3.33333C3.94698 8.88889 4.44444 9.38633 4.44444 10C4.44444 10.6137 3.94698 11.1111 3.33333 11.1111H1.11111C0.497467 11.1111 0 10.6137 0 10Z" fill="#5C6366"/>
<path fill-rule="evenodd" clip-rule="evenodd" d="M15.5557 3.33334C15.5557 2.7197 16.0531 2.22223 16.6668 2.22223H18.889C19.5027 2.22223 20.0001 2.7197 20.0001 3.33334C20.0001 3.94698 19.5027 4.44445 18.889 4.44445H16.6668C16.0531 4.44445 15.5557 3.94698 15.5557 3.33334Z" fill="#5C6366"/>
<path fill-rule="evenodd" clip-rule="evenodd" d="M15.5557 16.6667C15.5557 16.053 16.0531 15.5556 16.6668 15.5556H18.889C19.5027 15.5556 20.0001 16.053 20.0001 16.6667C20.0001 17.2803 19.5027 17.7778 18.889 17.7778H16.6668C16.0531 17.7778 15.5557 17.2803 15.5557 16.6667Z" fill="#5C6366"/>
<path fill-rule="evenodd" clip-rule="evenodd" d="M0 16.6667C0 16.053 0.497467 15.5556 1.11111 15.5556H12.2222C12.8359 15.5556 13.3333 16.053 13.3333 16.6667C13.3333 17.2803 12.8359 17.7778 12.2222 17.7778H1.11111C0.497467 17.7778 0 17.2803 0 16.6667Z" fill="#5C6366"/>
</svg>
