<svg width="20" height="20" viewBox="0 0 20 20" fill="none" xmlns="http://www.w3.org/2000/svg">
<g clip-path="url(#clip0_60:494)">
<path d="M2.44155 2.38983H17.5543C18.9034 2.38983 20 3.48646 20 4.83552V15.1645C20 16.5136 18.9034 17.6102 17.5543 17.6102H2.44569C1.09663 17.6102 0 16.5136 0 15.1645V4.83966C-0.00413704 3.4906 1.09249 2.38983 2.44155 2.38983ZM1.11318 15.1645C1.11318 15.897 1.70908 16.4929 2.44155 16.4929H17.5543C18.2868 16.4929 18.8827 15.897 18.8827 15.1645V4.83966C18.8827 4.10719 18.2868 3.51129 17.5543 3.51129H2.44569C1.71322 3.51129 1.11732 4.10719 1.11732 4.83966V15.1645H1.11318Z" fill="#1F9985"/>
<path d="M7.38674 9.87172L2.49537 5.48521C2.26777 5.2783 2.24708 4.92655 2.45399 4.69481C2.6609 4.46721 3.01265 4.44652 3.24439 4.65343L9.98968 10.7076L11.3056 9.53239C11.3098 9.52825 11.3139 9.52411 11.3139 9.51997C11.3429 9.49101 11.3718 9.46618 11.405 9.44135L16.7598 4.64929C16.9915 4.44238 17.3433 4.46307 17.5502 4.69481C17.7571 4.92655 17.7364 5.2783 17.5047 5.48521L12.5554 9.90897L17.484 14.5231C17.7075 14.7341 17.7199 15.0859 17.5088 15.3135C17.3971 15.4293 17.2481 15.4914 17.0991 15.4914C16.9626 15.4914 16.826 15.4418 16.7184 15.3424L11.7153 10.6621L10.358 11.8746C10.2504 11.9698 10.118 12.0153 9.98554 12.0153C9.85312 12.0153 9.71656 11.9657 9.6131 11.8705L8.21852 10.6207L3.24439 15.3466C3.13679 15.45 2.99609 15.4997 2.85953 15.4997C2.71056 15.4997 2.56572 15.4418 2.45399 15.3259C2.24294 15.1024 2.25121 14.7465 2.47468 14.5355L7.38674 9.87172Z" fill="#1F9985"/>
</g>
<defs>
<clipPath id="clip0_60:494">
<rect width="20" height="20" fill="white" transform="matrix(-1 0 0 1 20 0)"/>
</clipPath>
</defs>
</svg>
