<svg width="22" height="24" viewBox="0 0 22 24" fill="none" xmlns="http://www.w3.org/2000/svg">
<g clip-path="url(#clip0_12:878)">
<path d="M10.5257 24C12.1854 24 13.5318 22.657 13.5318 21H7.51956C7.51956 22.657 8.8659 24 10.5257 24ZM20.6474 16.9823C19.7395 16.0092 18.0407 14.5453 18.0407 9.75C18.0407 6.10781 15.4806 3.19219 12.0285 2.47688V1.5C12.0285 0.671719 11.3556 0 10.5257 0C9.69578 0 9.02285 0.671719 9.02285 1.5V2.47688C5.57079 3.19219 3.01064 6.10781 3.01064 9.75C3.01064 14.5453 1.31186 16.0092 0.403966 16.9823C0.122011 17.2847 -0.00298852 17.6461 -0.000638897 18C0.00453027 18.7687 0.609323 19.5 1.50782 19.5H19.5435C20.442 19.5 21.0473 18.7687 21.052 18C21.0543 17.6461 20.9293 17.2842 20.6474 16.9823Z" fill="#737C80"/>
</g>
<defs>
<clipPath id="clip0_12:878">
<rect width="21.0526" height="24" fill="white"/>
</clipPath>
</defs>
</svg>
