<svg width="16" height="16" viewBox="0 0 16 16" fill="none" xmlns="http://www.w3.org/2000/svg">
<path d="M13.8182 8.53818C13.8191 8.13536 13.7068 7.7404 13.4943 7.39819C13.2818 7.05598 12.9776 6.78026 12.6162 6.60237C12.2548 6.42448 11.8507 6.35157 11.4499 6.39191C11.0491 6.43226 10.6677 6.58424 10.349 6.8306C10.0303 7.07695 9.78708 7.40778 9.64705 7.78547C9.50702 8.16317 9.47577 8.57257 9.55685 8.96715C9.63794 9.36172 9.8281 9.72563 10.1057 10.0175C10.3834 10.3094 10.7373 10.5175 11.1273 10.6182V11.2291C11.1273 11.9447 10.8431 12.631 10.3371 13.137C9.83104 13.643 9.14475 13.9273 8.42915 13.9273C7.71355 13.9273 7.02725 13.643 6.52125 13.137C6.01524 12.631 5.73097 11.9447 5.73097 11.2291C5.75802 10.5867 5.91505 9.95643 6.19255 9.37642C6.47006 8.79642 6.86228 8.27869 7.34551 7.85455H7.27278C7.78709 7.51902 8.21121 7.06241 8.50792 6.52478C8.80464 5.98714 8.96488 5.38491 8.9746 4.77091V2.60364C8.9746 2.17543 8.8045 1.76477 8.50171 1.46198C8.19893 1.15919 7.78826 0.98909 7.36006 0.98909H6.54551C6.40278 0.98909 6.26589 1.04579 6.16496 1.14672C6.06403 1.24765 6.00733 1.38454 6.00733 1.52727C6.00733 1.67001 6.06403 1.8069 6.16496 1.90782C6.26589 2.00875 6.40278 2.06545 6.54551 2.06545H7.34551C7.48825 2.06545 7.62513 2.12215 7.72606 2.22308C7.82699 2.32401 7.88369 2.4609 7.88369 2.60364V4.77091C7.8837 5.48207 7.6022 6.16432 7.10069 6.66854C6.59919 7.17277 5.91848 7.45797 5.20733 7.46182V7.85455V7.46182C4.85395 7.46373 4.50366 7.39603 4.17645 7.26256C3.84924 7.1291 3.55152 6.93249 3.3003 6.68397C3.04907 6.43544 2.84926 6.13987 2.71226 5.81412C2.57527 5.48837 2.50378 5.13883 2.50188 4.78545V2.60364C2.50188 2.4609 2.55858 2.32401 2.6595 2.22308C2.76043 2.12215 2.89732 2.06545 3.04006 2.06545H3.79642C3.93916 2.06545 4.07604 2.00875 4.17697 1.90782C4.2779 1.8069 4.3346 1.67001 4.3346 1.52727C4.3346 1.38454 4.2779 1.24765 4.17697 1.14672C4.07604 1.04579 3.93916 0.98909 3.79642 0.98909H3.04006C2.61691 0.996715 2.21368 1.17018 1.91716 1.47214C1.62064 1.77411 1.45453 2.18042 1.4546 2.60364V4.77091C1.45303 5.3758 1.5977 5.9721 1.87629 6.50902C2.15488 7.04594 2.55913 7.50756 3.0546 7.85455C3.53518 8.27997 3.92469 8.79827 4.19966 9.37821C4.47464 9.95816 4.62939 10.5878 4.6546 11.2291C4.6546 11.7248 4.75223 12.2156 4.94192 12.6735C5.13161 13.1315 5.40964 13.5476 5.76014 13.8981C6.11064 14.2486 6.52674 14.5266 6.98469 14.7163C7.44264 14.906 7.93347 15.0036 8.42915 15.0036C8.92483 15.0036 9.41565 14.906 9.8736 14.7163C10.3316 14.5266 10.7477 14.2486 11.0982 13.8981C11.4487 13.5476 11.7267 13.1315 11.9164 12.6735C12.1061 12.2156 12.2037 11.7248 12.2037 11.2291V10.6182C12.6651 10.4991 13.0739 10.2302 13.3661 9.85381C13.6582 9.4774 13.8173 9.01468 13.8182 8.53818ZM11.6364 9.61455C11.4235 9.61455 11.2154 9.55142 11.0384 9.43315C10.8614 9.31487 10.7235 9.14677 10.642 8.95009C10.5605 8.75341 10.5392 8.53699 10.5807 8.32819C10.6223 8.1194 10.7248 7.92761 10.8753 7.77708C11.0258 7.62655 11.2176 7.52403 11.4264 7.4825C11.6352 7.44097 11.8516 7.46228 12.0483 7.54375C12.245 7.62522 12.4131 7.76318 12.5314 7.94019C12.6497 8.11719 12.7128 8.3253 12.7128 8.53818C12.7128 8.67953 12.6849 8.8195 12.6309 8.95009C12.5768 9.08068 12.4975 9.19934 12.3975 9.29929C12.2976 9.39924 12.1789 9.47852 12.0483 9.53261C11.9177 9.58671 11.7778 9.61455 11.6364 9.61455Z" fill="#24B29B"/>
</svg>
