<svg width="20" height="22" viewBox="0 0 20 22" fill="none" xmlns="http://www.w3.org/2000/svg">
<path d="M19.4084 11.8505C19.4097 11.2182 19.2335 10.5982 18.9 10.061C18.5664 9.52379 18.0888 9.09096 17.5214 8.81171C16.9541 8.53246 16.3198 8.418 15.6906 8.48133C15.0615 8.54467 14.4627 8.78326 13.9624 9.16998C13.4621 9.5567 13.0803 10.076 12.8605 10.6689C12.6407 11.2618 12.5916 11.9045 12.7189 12.5239C12.8462 13.1433 13.1447 13.7146 13.5805 14.1728C14.0164 14.6309 14.572 14.9576 15.1842 15.1157V16.0747C15.1842 17.1981 14.738 18.2754 13.9437 19.0697C13.1493 19.8641 12.072 20.3103 10.9486 20.3103C9.82529 20.3103 8.74795 19.8641 7.95362 19.0697C7.1593 18.2754 6.71305 17.1981 6.71305 16.0747C6.75552 15.0663 7.00202 14.0769 7.43764 13.1664C7.87327 12.2559 8.48897 11.4432 9.24756 10.7774H9.13339C9.94075 10.2507 10.6065 9.53389 11.0723 8.68991C11.5381 7.84593 11.7896 6.90055 11.8049 5.93669V2.53451C11.8049 1.86232 11.5379 1.21765 11.0626 0.742341C10.5872 0.267028 9.94258 0 9.27039 0H7.99172C7.76765 3.33882e-09 7.55277 0.0890093 7.39433 0.247447C7.23589 0.405884 7.14688 0.620772 7.14688 0.844836C7.14688 1.0689 7.23589 1.28379 7.39433 1.44223C7.55277 1.60066 7.76765 1.68967 7.99172 1.68967H9.24756C9.47162 1.68967 9.68651 1.77868 9.84494 1.93712C10.0034 2.09556 10.0924 2.31044 10.0924 2.53451V5.93669C10.0924 7.05307 9.6505 8.12406 8.86324 8.91559C8.07598 9.70713 7.0074 10.1548 5.89104 10.1609V10.7774V10.1609C5.33631 10.1639 4.78642 10.0576 4.27277 9.84808C3.75912 9.63857 3.29176 9.32994 2.89739 8.9398C2.50301 8.54967 2.18935 8.08568 1.97429 7.57432C1.75924 7.06296 1.64702 6.51425 1.64403 5.95952V2.53451C1.64403 2.31044 1.73304 2.09556 1.89147 1.93712C2.04991 1.77868 2.2648 1.68967 2.48886 1.68967H3.6762C3.90026 1.68967 4.11515 1.60066 4.27359 1.44223C4.43203 1.28379 4.52104 1.0689 4.52104 0.844836C4.52104 0.620772 4.43203 0.405884 4.27359 0.247447C4.11515 0.0890093 3.90026 0 3.6762 0H2.48886C1.82461 0.0119704 1.19162 0.284274 0.726143 0.758295C0.260662 1.23232 -8.7966e-05 1.87015 1.98838e-05 2.53451V5.93669C-0.00244699 6.88624 0.224658 7.82232 0.661987 8.66517C1.09932 9.50802 1.73391 10.2327 2.5117 10.7774C3.26611 11.4452 3.87755 12.2588 4.30921 13.1692C4.74086 14.0796 4.98379 15.068 5.02337 16.0747C5.02337 16.8528 5.17663 17.6233 5.47441 18.3422C5.77218 19.0611 6.20863 19.7143 6.75885 20.2645C7.30906 20.8147 7.96226 21.2512 8.68114 21.549C9.40003 21.8467 10.1705 22 10.9486 22C11.7268 22 12.4973 21.8467 13.2161 21.549C13.935 21.2512 14.5882 20.8147 15.1384 20.2645C15.6887 19.7143 16.1251 19.0611 16.4229 18.3422C16.7207 17.6233 16.8739 16.8528 16.8739 16.0747V15.1157C17.5982 14.9287 18.2399 14.5067 18.6986 13.9158C19.1573 13.3249 19.4069 12.5986 19.4084 11.8505ZM15.9834 13.5402C15.6492 13.5402 15.3225 13.4411 15.0447 13.2555C14.7668 13.0698 14.5502 12.8059 14.4224 12.4972C14.2945 12.1884 14.261 11.8487 14.3262 11.5209C14.3914 11.1931 14.5523 10.8921 14.7886 10.6558C15.0249 10.4195 15.326 10.2585 15.6538 10.1933C15.9815 10.1281 16.3213 10.1616 16.63 10.2895C16.9388 10.4174 17.2027 10.6339 17.3883 10.9118C17.574 11.1897 17.6731 11.5164 17.6731 11.8505C17.6731 12.0724 17.6294 12.2922 17.5445 12.4972C17.4596 12.7022 17.3351 12.8884 17.1782 13.0453C17.0213 13.2022 16.835 13.3267 16.63 13.4116C16.425 13.4965 16.2053 13.5402 15.9834 13.5402Z" fill="#A3A5A6"/>
</svg>
