<svg width="16" height="18" viewBox="0 0 16 18" fill="none" xmlns="http://www.w3.org/2000/svg">
<path d="M2.09375 15.6562C3.90625 17.4688 6.84375 17.4688 8.65625 15.6562C10.3438 13.9688 13.0938 11.2188 14.7812 9.53125C14.9375 9.375 14.9375 9.15625 14.7812 9L14.25 8.46875C14.0938 8.3125 13.875 8.3125 13.7188 8.46875C12.0312 10.1562 9.28125 12.9062 7.59375 14.5938C6.375 15.8125 4.375 15.8125 3.15625 14.5938C1.9375 13.375 1.9375 11.375 3.15625 10.1562L10.1875 3.125C11 2.3125 12.3125 2.3125 13.125 3.125C13.9375 3.9375 13.9375 5.25 13.125 6.0625L7.21875 11.9688C6.8125 12.375 6.15625 12.375 5.75 11.9688C5.375 11.5938 5.375 10.9375 5.75 10.5312L10.7812 5.53125C10.9375 5.375 10.9375 5.15625 10.7812 5L10.25 4.46875C10.0938 4.3125 9.875 4.3125 9.71875 4.46875L4.71875 9.46875C3.71875 10.4688 3.71875 12.0625 4.71875 13.0312C5.6875 14.0312 7.28125 14.0312 8.25 13.0312L14.1875 7.125C15.5938 5.71875 15.5938 3.46875 14.1875 2.0625C12.7812 0.65625 10.5312 0.65625 9.125 2.0625L2.09375 9.09375C0.28125 10.9062 0.28125 13.8438 2.09375 15.6562Z" fill="#8A9499"/>
</svg>
